<svg xmlns="http://www.w3.org/2000/svg" width="6000" height="2666.67" viewBox="-2820.513 -806.845 6000.004 2666.665"><defs><clipPath id="a" clipPathUnits="userSpaceOnUse"><path d="M45006.4 20009.8V9.809H6.36V20009.8Z" clip-rule="evenodd"/></clipPath><clipPath id="b" clipPathUnits="userSpaceOnUse"><path d="M45006.4 20009.8V9.809H6.36V20009.8Z" clip-rule="evenodd"/></clipPath><clipPath id="c" clipPathUnits="userSpaceOnUse"><path d="M45006.4 20009.8V9.809H6.36V20009.8Z" clip-rule="evenodd"/></clipPath><clipPath id="d" clipPathUnits="userSpaceOnUse"><path d="M45006.4 20009.8V9.809H6.36V20009.8Z" clip-rule="evenodd"/></clipPath><clipPath id="e" clipPathUnits="userSpaceOnUse"><path d="M45006.4 20009.8V9.809H6.36V20009.8Z" clip-rule="evenodd"/></clipPath><clipPath id="f" clipPathUnits="userSpaceOnUse"><path d="M45006.4 20009.8V9.809H6.36V20009.8Z" clip-rule="evenodd"/></clipPath><clipPath id="g" clipPathUnits="userSpaceOnUse"><path d="M45006.4 20009.8V9.809H6.36V20009.8Z" clip-rule="evenodd"/></clipPath><clipPath id="h" clipPathUnits="userSpaceOnUse"><path d="M45006.4 20009.8V9.809H6.36V20009.8Z" clip-rule="evenodd"/></clipPath><clipPath id="i" clipPathUnits="userSpaceOnUse"><path d="M45006.4 20009.8V9.809H6.36V20009.8Z" clip-rule="evenodd"/></clipPath><clipPath id="j" clipPathUnits="userSpaceOnUse"><path d="M45006.4 20009.8V9.809H6.36V20009.8Z" clip-rule="evenodd"/></clipPath><clipPath id="k" clipPathUnits="userSpaceOnUse"><path d="M45006.4 20009.8V9.809H6.36V20009.8Z" clip-rule="evenodd"/></clipPath><clipPath id="l" clipPathUnits="userSpaceOnUse"><path d="M45006.4 20009.8V9.809H6.36V20009.8Z" clip-rule="evenodd"/></clipPath><clipPath id="m" clipPathUnits="userSpaceOnUse"><path d="M45006.4 20009.8V9.809H6.36V20009.8Z" clip-rule="evenodd"/></clipPath><clipPath id="n" clipPathUnits="userSpaceOnUse"><path d="M45006.4 20009.8V9.809H6.36V20009.8Z" clip-rule="evenodd"/></clipPath><clipPath id="o" clipPathUnits="userSpaceOnUse"><path d="M45006.4 20009.8V9.809H6.36V20009.8Z" clip-rule="evenodd"/></clipPath><clipPath id="p" clipPathUnits="userSpaceOnUse"><path d="M45006.4 20009.8V9.809H6.36V20009.8Z" clip-rule="evenodd"/></clipPath><clipPath id="q" clipPathUnits="userSpaceOnUse"><path d="M45006.4 20009.8V9.809H6.36V20009.8Z" clip-rule="evenodd"/></clipPath><clipPath id="r" clipPathUnits="userSpaceOnUse"><path d="M45006.4 20009.8V9.809H6.36V20009.8Z" clip-rule="evenodd"/></clipPath><clipPath id="s" clipPathUnits="userSpaceOnUse"><path d="M45006.4 20009.8V9.809H6.36V20009.8Z" clip-rule="evenodd"/></clipPath><clipPath id="t" clipPathUnits="userSpaceOnUse"><path d="M45006.4 20009.8V9.809H6.36V20009.8Z" clip-rule="evenodd"/></clipPath><clipPath id="u" clipPathUnits="userSpaceOnUse"><path d="M45006.4 20009.8V9.809H6.36V20009.8Z" clip-rule="evenodd"/></clipPath><clipPath id="v" clipPathUnits="userSpaceOnUse"><path d="M45006.4 20009.8V9.809H6.36V20009.8Z" clip-rule="evenodd"/></clipPath><clipPath id="w" clipPathUnits="userSpaceOnUse"><path d="M45006.4 20009.8V9.809H6.36V20009.8Z" clip-rule="evenodd"/></clipPath><clipPath id="x" clipPathUnits="userSpaceOnUse"><path d="M45006.4 20009.8V9.809H6.36V20009.8Z" clip-rule="evenodd"/></clipPath><clipPath id="y" clipPathUnits="userSpaceOnUse"><path d="M45006.4 20009.8V9.809H6.36V20009.8Z" clip-rule="evenodd"/></clipPath><clipPath id="z" clipPathUnits="userSpaceOnUse"><path d="M45006.4 20009.8V9.809H6.36V20009.8Z" clip-rule="evenodd"/></clipPath><clipPath id="A" clipPathUnits="userSpaceOnUse"><path d="M45006.4 20009.8V9.809H6.36V20009.8Z" clip-rule="evenodd"/></clipPath><clipPath id="B" clipPathUnits="userSpaceOnUse"><path d="M45006.4 20009.8V9.809H6.36V20009.8Z" clip-rule="evenodd"/></clipPath><clipPath id="C" clipPathUnits="userSpaceOnUse"><path d="M45006.4 20009.8V9.809H6.36V20009.8Z" clip-rule="evenodd"/></clipPath><clipPath id="D" clipPathUnits="userSpaceOnUse"><path d="M45006.4 20009.8V9.809H6.36V20009.8Z" clip-rule="evenodd"/></clipPath><clipPath id="E" clipPathUnits="userSpaceOnUse"><path d="M45006.4 20009.8V9.809H6.36V20009.8Z" clip-rule="evenodd"/></clipPath><clipPath id="F" clipPathUnits="userSpaceOnUse"><path d="M45006.4 20009.8V9.809H6.36V20009.8Z" clip-rule="evenodd"/></clipPath><clipPath id="G" clipPathUnits="userSpaceOnUse"><path d="M45006.4 20009.8V9.809H6.36V20009.8Z" clip-rule="evenodd"/></clipPath><clipPath id="H" clipPathUnits="userSpaceOnUse"><path d="M45006.4 20009.8V9.809H6.36V20009.8Z" clip-rule="evenodd"/></clipPath></defs><path d="M12693.6 20124.3c29.4 29.2 76.9 29 106.1-.3 29.2-29.4 29-76.9-.3-106.1-210.5-209.2-385.6-490.6-570.1-753.2-193.9-276.1-398.8-531.2-656.7-673.3-393.8-217.1-902.2-302.9-1401.5-403.9-479.28-97-950.38-207.5-1291.75-480.4-414-330.9-454.99-754.1-460.13-1171.9-5.6-456.2 25.72-907-249.81-1252.7-510.85-640.8-1363.2-943.2-2048.62-1359.4-653.48-396.8-1148-904-990.87-1960.7 57.39-385.9 202.33-806.8 527.51-1048.7 549.95-409.1 1044.15-554 1488.56-543.2 670.91 16.2 1226.24 383.7 1684.15 714.8 319.67 231.1 594.41 445.1 827.04 526.8 179.28 62.9 336.93 53 475.62-62.2 612.5-508.6 1086.9-1450.2 1532.2-2376.2 435.3-905.03 841.7-1794.89 1336.3-2224.48 119.3-103.63 285.5-123.63 480.3-101.63 323 36.47 719.5 190.58 1130 341.25 423.5 155.48 861.3 307.44 1250.8 335.19 272.9 19.44 522.9-21.66 731.5-157.45 264.7-172.28 470-436.26 646.2-744.53 255.6-446.89 450.8-987.84 692.4-1461.89 232.3-455.78 506-850.24 930.8-1022.33 281.1-113.89 627.4-128.64 1069.2-3.47 687.3 194.76 1099.1 772.09 1430.3 1422.83 342.5 673.17 598.4 1425.96 959.8 1947.39 1124.3 1622.28 1857.8 3184.32 3714 4136.62 448.6 230.2 948.5 372.5 1426.4 550.4 464.6 173 908.5 379.7 1258.6 743.4 583.7 606.6 894.7 1456.2 1270.2 2252 386.5 819 840.4 1581.2 1699.2 1988.4 486 230.5 1225.8 316.3 1737.2 149.6 467-152.2 757.4-501.6 1046.2-853 270.7-329.6 539.8-661.2 980-801 137.1-43.5 262.7-28.1 385.6-8.3 141.6 22.7 280.3 50.8 426.2 28.1 85.3-13.3 139.6-21.2 211.2-83.1 236.7-205.1 402.1-588.6 594.6-932.2 175.4-313 371.5-595.3 695.7-630.6 287.4-31.2 557.8 51.3 824 156.4 280.8 110.9 557.1 247.1 841.5 317.4 1742.2 430.9 3671.8 865.4 5477.6 744.5 41.3-2.8 72.6-38.6 69.8-79.9-2.7-41.3-38.5-72.6-79.8-69.8-1790.7 119.9-3703.9-313.1-5431.6-740.4-278.1-68.8-547.8-202.9-822.4-311.3-289-114.2-583.3-199.9-895.3-166-371.2 40.4-609.5 348.1-810.3 706.3-183.7 327.7-336.3 696.6-562.1 892.2-45.5 39.4-81.7 39.8-136 48.3-129.8 20.2-253.2-7.8-379.4-28-144.9-23.3-293-37.9-454.6 13.4-469.8 149.2-761.7 497.1-1050.6 848.7-270.9 329.7-538.7 662.9-976.8 805.7-478.9 156.1-1171.4 73.3-1626.4-142.5-825.7-391.6-1256.3-1129.5-1627.8-1916.9-382.6-810.7-703.2-1674.1-1297.9-2292-366-380.3-828.5-599.1-1314.3-779.9-472.4-175.9-966.8-315.8-1410.2-543.3-1832-940-2549.6-2487.49-3659.2-4088.66-358.1-516.58-610.1-1263.08-949.5-1929.98-350.8-689.32-794.9-1292.81-1523-1499.12-482-136.56-859.7-115.48-1166.4 8.77-456.9 185.1-758.3 603-1008.2 1093.23-200.9 394.29-369.6 834.98-567.8 1229.05-191.8 381.2-410.2 718.83-718.9 919.77-219.8 143.06-493 160.47-789.1 116.95-469.3-68.97-994.1-291.59-1470.4-459.4-329.4-116.04-636.6-205.83-888.8-208.56-183.9-1.99-340.4 41.57-460.8 146.12-506.1 439.57-927.8 1346.65-1373.1 2272.72-435.3 905.11-894.2 1828.71-1492.9 2325.81-123.78 102.8-269.12 74-438.61-10.6-197.95-98.8-423.62-274.6-680.37-460.2-480.1-347.1-1064.98-726.1-1768.4-743.2-471.8-11.4-997.87 138.5-1581.71 572.8-356.85 265.5-523.38 723.6-586.35 1147.1-169.01 1136.5 358.53 1684.2 1061.38 2110.9 670.9 407.4 1509.14 697.4 2009.18 1324.7 123.55 155 175.43 334.4 198.31 525.7 24.25 202.7 16.14 418.6 18.8 635.4 5.66 460.3 60.39 922.7 516.46 1287.2 358.79 286.8 851.93 408.3 1355.71 510.2 483.8 97.9 977.2 177.9 1358.8 388.2 239.4 132 426.3 371.9 606.4 628.2 189.6 269.9 370.7 558.4 587 773.4" clip-path="url(#a)" style="fill:#eeeadd;fill-opacity:1;fill-rule:evenodd;stroke:none" transform="matrix(.13333 0 0 -.13333 -2821.36 1861.128)"/><path d="M11647.7 77.648c2.5-41.308-29-76.918-70.3-79.468-41.3-2.551-76.9 28.922-79.5 70.242-19.2 312.59 96.5 1070.548 40 1682.688-18 195.1-53.5 374.89-119 518.07-59.5 130.28-143.7 229.29-266.2 274.22-372.6 136.63-778.8 139.97-1180.52 154.2-420.4 14.88-835.98 41.59-1207.98 224.03-850.47 417.08-1622.17 1537.7-2306.61 2211.4-259.16 255.09-404.66 593.48-495.83 973.7-88.4 368.64-126.01 776.99-173.03 1183.28-90.81 784.58-211.41 1564.3-846.22 2009.6-359.22 251.99-838.61 251.36-1330.04 198.59-514.8-55.28-1043.12-169.77-1473.14-146.16-692.02 37.99-1351.889 408.8-2038.889 532.4-40.742 7.33-67.87 46.36-60.543 87.1 7.333 40.76 46.364 67.86 87.102 60.56 681.039-122.56 1334.54-492.63 2020.55-530.29 423-23.22 942.51 91.16 1448.91 145.53 529.78 56.89 1044.93 46.73 1432.19-224.93 670.25-470.16 813.21-1286.77 909.08-2115.15 46.32-400.18 82.82-802.46 169.89-1165.55 84.29-351.51 215.61-665.96 455.19-901.78 674.27-663.68 1429.6-1772.75 2267.44-2183.63 353.07-173.15 748.22-194.67 1147.23-208.8 417.62-14.79 839.52-21.23 1226.82-163.27 159.5-58.5 273.5-183.07 351-352.68 71.7-156.71 112.2-353.11 132-566.65 56.6-613.78-59-1373.798-39.6-1687.252" clip-path="url(#b)" style="fill:#eeeadd;fill-opacity:1;fill-rule:evenodd;stroke:none" transform="matrix(.13333 0 0 -.13333 -2821.36 1861.128)"/><path d="M-301.199 8444.03c-36.281 19.91-49.571 65.54-29.66 101.83 19.918 36.29 65.55 49.58 101.839 29.66 694.282-381.08 1349.21-358.21 1955.47-307.69 634.53 52.89 1218.1 132.04 1742.49-141.7 551.76-288.02 728.44-676.99 836.47-1130.1 68.53-287.43 108.39-601.61 207.08-931.56 152.5-509.88 476.85-1037.25 814.4-1448.42 701.17-854.12 1696.1-1644.4 2712.72-2079.25 592.66-253.5 1069.8-415.28 1445.26-582.68 390.11-173.93 673.03-355.83 866.13-642.73 253.7-376.73 352.8-940.07 320.2-1928.05-1.3-41.379-36-73.86-77.4-72.488-41.4 1.359-73.9 36.058-72.5 77.429 31.1 941.649-53 1480.278-294.7 1839.339-178.3 264.93-442.57 428.88-802.82 589.5-374.91 167.16-851.37 328.63-1443.16 581.77-1037.8 443.91-2053.89 1250.07-2769.67 2121.98-349.56 425.8-684.25 972.6-842.17 1500.62-99.56 332.88-140.14 649.77-209.28 939.75-98.47 413.01-257.04 769.39-759.97 1031.92-499.52 260.75-1056.18 175.57-1660.62 125.19-632.72-52.73-1315.519-72.04-2040.109 325.68" clip-path="url(#c)" style="fill:#eeeadd;fill-opacity:1;fill-rule:evenodd;stroke:none" transform="matrix(.13333 0 0 -.13333 -2821.36 1861.128)"/><path d="M9543.07-238.551c7.55-40.699-19.37-79.871-60.07-87.41-40.7-7.551-79.87 19.371-87.42 60.07-166.79 899.469-817.37 1314.301-1581.95 1616.461-794.07 313.8-1710.39 507.76-2375.12 956.34-896.85 605.22-1819.97 1591.22-2169.86 2632.58-96.78 288.02-100.78 600.83-140.46 899.51-36.83 277.21-105.18 542.27-331.35 756.49-373.96 354.22-930.22 424.73-1493.63 508.16-594.71 88.08-1197.249 188.7-1629.64 595.4-30.148 28.36-31.601 75.87-3.242 106.02 28.363 30.15 75.863 31.6 106.012 3.24 410.14-385.77 984.738-472.73 1548.84-556.27 595.41-88.18 1179.61-173.31 1574.81-547.64 253.54-240.16 335.61-534.89 376.89-845.64 38.43-289.27 40.23-592.55 133.96-871.5 340.03-1012.01 1240-1967.85 2111.58-2556.01 656.32-442.91 1562.3-631.34 2346.34-941.18 813.52-321.5 1496.84-771.558 1674.31-1728.621" clip-path="url(#d)" style="fill:#eeeadd;fill-opacity:1;fill-rule:evenodd;stroke:none" transform="matrix(.13333 0 0 -.13333 -2821.36 1861.128)"/><path d="M1958.53 5738.36c-14.12 5.6-100.44 39.57-195.07 70.98-494.6 164.19-1671.401 510.45-1884.749 598.48-38.27 15.78-56.52 59.67-40.731 97.93 15.79 38.27 59.668 56.51 97.942 40.73 212.199-87.56 1382.848-431.47 1874.798-594.78 88.93-29.52 156.36-53.42 193.29-69.08 27.07-11.48 43.46-22.41 50.12-28.44 259.28-234.64 385.54-586.12 471.89-958.11 82.04-353.43 128.6-725.03 235.08-1020.11 211.98-587.43 616.92-1110.32 1096.11-1509.41 393.45-327.68 803.3-632.97 1263.51-860.47 411.6-203.48 769.28-348.43 1065.95-517.002 308-175 551.69-375.629 725.36-685.527 147.05-262.41 243.91-604.481 283.34-1080.129 3.42-41.25-27.29-77.524-68.54-80.942-41.25-3.421-77.52 27.301-80.94 68.551-37.19 448.528-126.05 771.75-264.71 1019.188-159.67 284.922-385.44 467.551-668.62 628.441-294.5 167.34-649.72 310.96-1058.32 512.95-470.8 232.75-890.51 544.45-1293.02 879.68-499.38 415.89-920.31 961.58-1141.21 1573.75-108.29 300.08-156.68 677.71-240.11 1037.11-78.56 338.43-187.29 661.19-421.37 876.21" clip-path="url(#e)" style="fill:#eeeadd;fill-opacity:1;fill-rule:evenodd;stroke:none" transform="matrix(.13333 0 0 -.13333 -2821.36 1861.128)"/><path d="M4778.55-206.77c11.89-39.652-10.65-81.492-50.3-93.378-39.65-11.883-81.49 10.66-93.38 50.308-192.8 643.129-629.55 927.809-1117.27 1166.219-514.02 251.261-1082.99 453.521-1511.7 926.081-485.82 535.52-590.68 1251.89-802.35 1852.5-100.03 283.83-224.691 540.82-435.351 733.82-209.34 191.79-503.527 318.66-939.008 349.81-41.293 2.96-72.41 38.88-69.461 80.16 2.961 41.29 38.872 72.42 80.161 69.46 478.32-34.22 799.711-178.17 1029.64-388.83 228.619-209.45 366.929-486.53 475.489-794.56 205.51-583.12 300.3-1281.65 771.98-1801.58 415.09-457.55 968.78-648.82 1466.47-892.1 523.98-256.128 987.95-566.968 1195.08-1257.91" clip-path="url(#f)" style="fill:#eeeadd;fill-opacity:1;fill-rule:evenodd;stroke:none" transform="matrix(.13333 0 0 -.13333 -2821.36 1861.128)"/><path d="M-299.699 2861.1c-36.86 18.83-51.5 64.05-32.66 100.91 18.828 36.86 64.05 51.49 100.91 32.66 440.91-225.29 615.609-603.22 760.258-1008.17 134.543-376.67 241.41-777.57 552.551-1077.969 245.12-236.652 453.03-326.84 634.22-414.781 294.95-143.148 527.78-277.648 735.3-930.879 12.53-39.449-9.32-81.652-48.77-94.18-39.45-12.543-81.66 9.321-94.19 48.77-186.83 588.109-392.28 712.469-657.83 841.348-192.47 93.41-412.54 190.421-672.918 441.812C648.551 1117.9 529.648 1538.21 387.551 1936.05c-132.012 369.57-284.852 719.44-687.25 925.05" clip-path="url(#g)" style="fill:#eeeadd;fill-opacity:1;fill-rule:evenodd;stroke:none" transform="matrix(.13333 0 0 -.13333 -2821.36 1861.128)"/><path d="M-301.172 11366.5c-39.558 12.2-61.808 54.1-49.637 93.7 12.168 39.6 54.18 61.8 93.739 49.7 547.73-168.5 1228.91-455.2 1890.02-565.8 427.71-71.6 846.85-69.5 1212.86 94.7 549.36 246.4 628.04 714.5 655.04 1233.5 29.17 560.9-.46 1180.1 338.16 1683.6 347.12 516.1 898.02 758.7 1464.49 980.8 541.14 212.1 1096.64 405 1479.36 832.3 304.54 340 372.38 789.4 440.36 1242.1 72.18 480.6 143.86 965.1 451.36 1346.1 132.95 164.7 342.33 284.3 594.08 378.3 358.62 134 804.92 217.9 1221.7 326.7 335.67 87.6 652.04 190.8 882.24 354.4 216.6 153.9 353.5 363 347.3 667.9-.8 41.4 32.1 75.7 73.5 76.5 41.3.8 75.6-32.1 76.5-73.5 11.4-568.6-393.2-860.2-935.79-1049.5-458.55-159.9-1015.62-247.9-1469.34-393.4-286.27-91.8-530.78-204.9-673.47-381.7-290.56-359.9-351.55-819.9-419.74-1274.1-72.4-482.1-152.64-957.8-476.97-1319.9-398.29-444.6-973.18-651.1-1536.34-871.9-537.85-210.8-1065.18-434.7-1394.77-924.8-322.96-480.3-285.01-1072.7-312.84-1607.7-30-576.8-132.89-1088.7-743.43-1362.6-392.11-175.9-840.8-182.4-1299.01-105.8-667.759 111.7-1356.13 400.2-1909.372 570.4" clip-path="url(#h)" style="fill:#eeeadd;fill-opacity:1;fill-rule:evenodd;stroke:none" transform="matrix(.13333 0 0 -.13333 -2821.36 1861.128)"/><path d="M9515.05 20480.6c36.79 18.9 82.07 4.5 101.04-32.3 18.97-36.8 4.51-82.1-32.28-101.1-616.23-317.8-2031.03-349.9-2931.26-456-223.92-26.4-414.97-57.4-551.37-99.8-76.77-23.8-134.63-48.7-165.05-82.4-321.53-355.3-288.32-812.2-236.36-1278 56.14-503.2 134.76-1017.3-99.38-1446.1-304.44-557.5-790.07-775.8-1300.19-951.7-482.12-166.3-986.76-292.3-1358.35-671.1-340.78-347.4-363.82-798-383.62-1248.7-21.36-485.9-38.8-972.3-368.6-1354.4-261.3-302.8-626.46-377.6-1020.52-336.4-558.731 58.5-1176.47 353.3-1604.52 503.4-39.059 13.7-59.649 56.5-45.961 95.6 13.699 39 56.543 59.6 95.601 45.9 419.2-147 1023.301-438.5 1570.48-495.7 343.21-35.9 663.78 21.5 891.36 285.2 306.85 355.5 312.43 810.9 332.3 1263 21.42 487.5 57.78 971.4 426.41 1347.1 388.37 395.9 912.62 534.1 1416.52 707.9 475.91 164.1 933.41 361.7 1217.44 881.8 219.69 402.3 134.63 885.4 81.96 1357.6-56.85 509.6-77.59 1006.5 274.2 1395.3 43.42 48 122.18 90.9 231.78 125 143.11 44.4 343.39 77.7 578.31 105.4 884.15 104.2 2274.84 128.3 2880.06 440.5" clip-path="url(#i)" style="fill:#eeeadd;fill-opacity:1;fill-rule:evenodd;stroke:none" transform="matrix(.13333 0 0 -.13333 -2821.36 1861.128)"/><path d="M-276.27 14094.9c-41.019 5.5-69.82 43.4-64.269 84.4 5.551 41 43.359 69.8 84.379 64.2 704.469-95.3 1087.43-16.7 1301.75 186.9 212.84 202.2 253.24 520.4 288.98 881.1 51.58 520.5 85.54 1125.9 491.55 1641 227.37 288.4 629.94 433.9 967.31 536.2 482.6 146.3 798.31 328.2 1000.61 555 232.98 261.2 312.55 580.9 331.49 965.6 19.77 401.7-26.75 872.1-47.63 1419.9-1.58 41.3 30.72 76.2 72.08 77.8 41.37 1.6 76.23-30.7 77.81-72.1 21.08-552.8 67.51-1027.6 47.56-1432.9-20.79-422.3-113.62-771.4-369.37-1058.2-216.62-242.9-552.24-441.9-1069.02-598.7-310.07-94-684.07-220.4-893.04-485.5-386.15-489.8-411.03-1067.8-460.08-1562.9-39.74-401.1-98.3-750.3-334.94-975-235.181-223.4-652.13-331.4-1425.17-226.8" clip-path="url(#j)" style="fill:#eeeadd;fill-opacity:1;fill-rule:evenodd;stroke:none" transform="matrix(.13333 0 0 -.13333 -2821.36 1861.128)"/><path d="M2968.81 20197.9c-3.6 41.3 26.96 77.7 68.2 81.3 41.24 3.6 77.64-27 81.23-68.2 28.01-321.4-23.66-563.5-127.96-755.2-154.97-284.7-428.79-459.2-746.88-612.4-494.07-237.9-1099.64-423.9-1470.138-974.1-172.563-256.3-206.321-593.1-263.434-913.9-62.34-350.1-151.957-681.4-429.238-895.1-258.809-199.5-590.578-199.7-900.129-184-41.34 2.1-73.199 37.4-71.102 78.8 2.102 41.3 37.371 73.2 78.711 71.1 274.739-14 571.239-24.2 800.942 152.9 247.226 190.5 317.558 490.4 373.136 802.6 60.821 341.6 102.93 698.4 286.68 971.3 386.862 574.6 1013.602 777.1 1529.482 1025.6 287.88 138.6 539.97 291.2 680.22 549 92.52 170 135.13 385.2 110.28 670.3" clip-path="url(#k)" style="fill:#eeeadd;fill-opacity:1;fill-rule:evenodd;stroke:none" transform="matrix(.13333 0 0 -.13333 -2821.36 1861.128)"/><path d="M918.281 20197.1c37.59 17.3 82.179.9 99.519-36.7 17.35-37.6.91-82.2-36.679-99.5-748.101-345.1-1151.41-980.4-1289.043-1786.6-6.969-40.8-45.75-68.3-86.547-61.3-40.812 6.9-68.281 45.7-61.312 86.5 146.359 857.4 578.511 1530.6 1374.062 1897.6" clip-path="url(#l)" style="fill:#eeeadd;fill-opacity:1;fill-rule:evenodd;stroke:none" transform="matrix(.13333 0 0 -.13333 -2821.36 1861.128)"/><path d="M12444.5-496.559c-13.4-39.152-56.1-60.031-95.3-46.601-39.1 13.43-60 56.129-46.6 95.281 250.6 730.551 424.5 1824.269 194.4 2712.259-149.8 578.07-472.5 1068.4-1065.7 1303.17-362 143.25-753.7 153.22-1141.2 184.49-407.07 32.86-809.38 88.64-1172.94 322.48-606.59 390.17-1445.68 1505.73-1884.18 2587.04-297.94 734.69-406.76 1453.81-154.13 1925.51 191.68 357.89 771.86 951.72 1369.81 1281.66 414.81 228.87 838.68 326.57 1153.82 159.17 107.78-57.21 193.77-171.39 263.65-331.37 94.09-215.39 162.87-517.89 242.37-858.44 191.6-821.01 444.8-1873.75 1331.8-2407 811.2-487.69 1756.4-571 2670.6-396.82 468.2 89.21 914.9 260.18 1395.5 114.84 597.2-180.61 943.3-596.65 1236.9-1067.37 281-450.58 512.6-952 891.3-1324.99 286.8-282.46 595.7-359.35 912.5-407.49 338.8-51.48 686.7-72.02 1030.8-243.44 568.4-283.11 975.6-776.1 1260.6-1358.83 421.2-861.092 575.2-1918.349 597.9-2765.08 1.2-41.38-31.5-75.87-72.9-76.99-41.4-1.11-75.9 31.58-77 72.96-22.2 827.671-171 1861.499-582.7 2703.2-270.2 552.46-653.9 1022.07-1192.7 1290.47-329.1 163.92-662.5 180.18-986.6 229.41-346.1 52.59-681.8 140.34-995.1 448.92-387.1 381.19-626.2 891.99-913.4 1352.48-274.6 440.34-594.3 834.21-1153.1 1003.18-456.2 137.97-879.4-33.92-1324-118.62-950.4-181.08-1932.6-91.4-2775.9 415.62-924.4 555.73-1200.9 1645.83-1400.58 2501.47-77.03 330.11-142.54 623.68-233.75 832.48-53.65 122.82-113.81 215.02-196.55 258.97-276.87 147.04-646.57 43.01-1011-158.07-570.86-314.98-1127.04-879.46-1310.04-1221.14-236.13-440.89-117.57-1111.62 160.9-1798.32 426.11-1050.74 1236.88-2138.11 1826.33-2517.25 341.8-219.85 721.15-268.24 1103.89-299.12 402.3-32.47 808.4-45.81 1184.3-194.54 641.1-253.7 993.8-780.29 1155.7-1405 237.4-916.19 60.9-2044.829-197.7-2798.579" clip-path="url(#m)" style="fill:#eeeadd;fill-opacity:1;fill-rule:evenodd;stroke:none" transform="matrix(.13333 0 0 -.13333 -2821.36 1861.128)"/><path d="M9159.27 7080.19c-232.46-249.17-167.12-627.47 13.14-1011.56 287.22-611.96 880.59-1238.82 1214.69-1431.32 187.4-107.96 380.7-152.57 577-183.54 207.4-32.7 418.2-50.43 630-103.49 1436.8-359.93 2170.1-1503.96 2247.2-2948.34 37.3-699.561 21.9-1362.53-405.5-1938.479-24.7-33.231-71.7-40.191-105-15.52-33.2 24.668-40.2 71.688-15.5 104.93 405.6 546.48 411.6 1177.301 376.2 1841.079-73.4 1374.99-766.1 2468.19-2133.8 2810.82-426.1 106.74-847.4 73.24-1245.5 302.56-350.13 201.72-974.61 856.3-1275.57 1497.58-210.99 449.54-258.18 892.22 17.41 1182.33 29.11 30.64 76.49 46.95 133.7 44.44 84.47-3.71 196.12-48.12 233.61-64.73 197.11-87.33 334.43-242.02 449.27-418.01 106.65-163.44 193.68-345.3 298.38-499.97 349.8-516.66 826.2-943.4 1411.4-1169.83 507.7-196.41 1004.7-157.75 1491.4-109.69 508.3 50.19 1005.9 110.04 1493.7-47.12 537.9-173.3 810.4-522.71 1038.9-914.14 215.8-369.9 389.9-778.85 737.7-1094.39 538-488.12 1114.6-602.41 1636-745.97 411.9-113.42 790.7-245.09 1097.8-567.5 304.9-320.02 541.1-830.279 661.1-1709.228 5.6-41.024-23.1-78.864-64.1-84.461-41-5.61-78.9 23.14-84.5 64.16-114 834.828-331.5 1322.109-621.1 1626.059-287.2 301.55-643.7 420.27-1029 526.35-541.6 149.1-1138.3 272.54-1697 779.49-359.8 326.44-543.2 747.24-766.5 1129.89-210.7 361.13-459 687.08-955.3 846.97-467.9 150.76-945.4 88.76-1433 40.62-509.2-50.29-1028.9-86.46-1560.2 119.07-613.8 237.48-1114.6 683.73-1481.5 1225.63-105.18 155.35-192.68 337.94-299.8 502.08-98.93 151.6-214.63 287.62-384.41 362.85-25.4 11.26-93.56 39.72-154.59 49.36-15.81 2.5-40.65 1.35-46.73 1.02" clip-path="url(#n)" style="fill:#eeeadd;fill-opacity:1;fill-rule:evenodd;stroke:none" transform="matrix(.13333 0 0 -.13333 -2821.36 1861.128)"/><path d="M18219.5-52.07c5.6-41.008-23.1-78.871-64.1-84.5-41-5.629-78.9 23.09-84.5 64.101-53.8 391.91-162.6 613.571-314.8 743.578-151.7 129.59-343.1 166.75-551.1 199.77-307.2 48.742-648.6 85.941-971.1 322.321-48.3 35.4-110.1 111.69-178.7 211.97-144.3 210.85-328.6 533.64-510.4 746.35-63.2 73.96-125.3 134.25-185.5 167.94-32.3 18.06-62.9 28.54-92.5 22.55-29.8-6.05-55.8-28.74-81.5-65.88-64.4-92.87-80.7-215.61-62.5-325.8 45.9-278.64 220.9-517.43 303.7-785.37 187.3-606.331 169.4-1233.081 154.8-1860.089-.9-41.383-35.3-74.199-76.7-73.242-41.4.961-74.2 35.332-73.2 76.711 14.1 610.851 34.2 1221.66-148.2 1812.36-84.8 274.38-261.4 519.91-308.4 805.24-24.3 147.58.9 311.28 87.2 435.66 53.2 76.69 113.4 114.92 175 127.42 87.3 17.71 184.8-18.22 282.8-99.66 184.1-153 383.5-473.09 550.1-733.3 101.8-158.93 188.5-294.83 252.7-341.87 300.3-220.12 619.8-249.78 905.9-295.17 236.9-37.579 452.4-86.329 625-233.872 172.2-147.109 305.1-393.738 366-837.218" clip-path="url(#o)" style="fill:#eeeadd;fill-opacity:1;fill-rule:evenodd;stroke:none" transform="matrix(.13333 0 0 -.13333 -2821.36 1861.128)"/><path d="M14122.6 20338.9c16.6 37.9 60.9 55.1 98.8 38.4 37.9-16.7 55.1-61 38.4-98.9-515-1169.8-1218.5-1930.1-2468.4-2275.1-313.9-86.6-636.6-113-890.1-333.5-383-333.3-628.2-772.8-859-1221.5-237.88-462.4-460.63-934.6-791.55-1318.9-375.12-435.7-980.32-756.7-1529.35-1113.3-526.11-341.7-1001.72-715-1141.62-1274.5-54.64-218.5-32.79-392.7 44.71-524.9 71.51-121.9 189.32-206.6 330.12-258.7 223.26-82.6 503.39-83.4 763.73-12.8 585.41 158.9 1139.74 511.7 1696.11 685.4 581.24 181.4 1164.45 175.9 1784.05-405.6 602.4-565.4 798.9-1340 1055.3-2064.6 245.7-694.19 548.7-1341.54 1368.9-1684.61 265.2-110.93 532.4-106.93 801.6-51.35 280.5 57.91 563 171.36 848.1 276.35 598.5 220.42 1207.3 399.6 1828 21.29 724.6-441.58 1061.5-1255.67 1401.6-1914.72 316.3-613.01 630.2-1092.14 1330.3-915.39 480 121.17 785.9 527.51 1022.7 1023.36 372.2 779.47 572.5 1779.62 939.2 2339.75 523.6 799.92 1220.7 1424.62 1960.8 2022.72 610.1 493.1 1304.5 928 2040.3 1205.2 292.8 110.4 600.5 169.8 898 252.7 285.6 79.5 562 180.8 804.1 377.6 640.1 520.3 888.4 1294.6 1266.2 1997.7 445.9 829.7 1079.3 1760.7 1872.1 2457.8 801.5 704.8 1765.5 1170.3 2862.1 1061.7 472.1-46.8 833.5-391.6 1179.4-772.9 325-358.2 636.4-748.4 1035-909.4 251.2-101.5 515-89.3 780.2-85.8 286.8 3.9 575-1.5 853.6-139.2 301.8-149.1 490.7-410.4 692-644.4 182.4-212.2 375.6-401.1 700.7-430 1218.4-108.3 2329.6 300.7 3461.5 614.4 1155.1 320.1 2330.9 542.6 3657.2 52 38.9-14.3 58.7-57.5 44.4-96.3-14.4-38.9-57.6-58.7-96.4-44.4-1293 478.2-2439.1 256.2-3565.1-55.8-1149.1-318.5-2277.9-729.3-3514.9-619.3-369.6 32.8-593.7 240.4-801.2 481.5-188.6 219.3-361.9 468.1-644.6 607.8-256.1 126.6-521.6 127.3-785.2 123.7-285.1-3.8-568.3-12.4-838.4 96.7-417.9 168.8-749.2 572.2-1089.9 947.7-319.7 352.4-646.8 681.2-1083 724.4-1053.8 104.4-1978.2-347.8-2748.4-1025.1-779.1-685-1400.8-1600.7-1838.9-2416.1-387.2-720.4-647.8-1510-1303.8-2043.1-258.8-210.4-553.2-320.7-858.4-405.7-293.3-81.7-596.7-139.8-885.4-248.5-721-271.7-1401.1-698.4-1998.9-1181.6-727.9-588.2-1414.7-1201.49-1929.6-1988.18-363.8-555.7-560.1-1548.92-929.4-2322.23-257.5-539.35-599.2-972.35-1121.2-1104.16-254.3-64.2-464.7-52.19-645.1 14.61-266.5 98.67-468.7 319.46-647.8 606.2-212.1 339.66-393.6 773.1-629 1186.95-228.7 402.06-508.7 786.09-924.8 1039.7-576.8 351.48-1142.1 170.83-1698.2-33.96-595.5-219.32-1182-464.11-1759.4-222.62-866 362.23-1193 1039.98-1452.4 1772.99-248.7 702.5-432.4 1457-1016.5 2005.2-684.8 642.6-1321.84 517.1-1964.8 251.2-449.09-185.8-901.41-438.3-1373.48-566.4-493.97-134-1047.38-26.4-1262.51 340.4-94.17 160.6-127.24 371.7-60.85 637.2 148.83 595.2 645.74 1000.4 1205.44 1363.9 536.76 348.6 1130.65 659.4 1497.38 1085.4 323.35 375.5 539.41 837.8 771.87 1289.6 239.55 465.7 496.35 920.2 893.85 1266 271.1 235.9 613.1 272.4 948.7 365 1202 331.8 1875.7 1065.9 2371.1 2191" clip-path="url(#p)" style="fill:#eeeadd;fill-opacity:1;fill-rule:evenodd;stroke:none" transform="matrix(.13333 0 0 -.13333 -2821.36 1861.128)"/><path d="M22923.2-504.27c10.1-40.152-14.4-80.921-54.5-90.98-40.2-10.059-81 14.379-91 54.531-129.2 515.59-400.5 980.938-656.6 1450.641-263.6 483.368-511 971.318-584.8 1518.178-106 786.3 338.8 2022.3 1012 3291.13 1002.1 1889.04 2503.8 3853.8 3384.5 4511.47 487.1 363.8 1068.1 602.3 1639.8 849.6 558.7 241.6 1108.5 491.5 1546.5 883.9 680.5 609.8 1112.1 1583.3 1619.4 2459.4 522.1 901.7 1124.1 1700 2127.8 1931.9 73.3 17 115.2 17.4 186.3-1.4 426.6-112.5 762.9-400.2 1085.9-708.8 308.1-294.5 603.8-608.1 965.4-787 194.3-96.2 407.4-105.9 613.5-133.8 229.5-31.1 450.5-83.1 637.6-262.8 279.4-268.5 414.1-644.9 582.7-988.4 155.8-317.6 342-606.4 733.6-727.9 382.1-118.6 831.2-41.8 1289.7 105.7 712.3 229.3 1445.8 631.2 1996.8 794.2 1277.6 378 2689.9 680.3 4022.9 456.9 40.9-6.8 68.4-45.5 61.6-86.3-6.8-40.9-45.5-68.5-86.3-61.6-1310.9 219.6-2699.3-81.2-3955.6-452.8-550.2-162.8-1282.3-564.3-1993.4-793.1-490.5-157.9-971.4-233.1-1380.1-106.3-436.5 135.5-650.2 451.2-823.9 805.1-160.9 328-285.1 690-551.9 946.3-161.9 155.6-355.3 195.5-553.9 222.4-221.9 30-450.6 44.4-659.8 147.9-374.7 185.5-683.3 507.9-1002.5 813-304.4 290.9-618.5 566.3-1020.5 672.3-43.7 11.5-69.3 10.7-114.3.3-962.2-222.4-1531.3-996.5-2031.8-1861-515.4-890-957.8-1876.4-1649.1-2495.9-449.8-403-1013.2-661.7-1587-909.9-560.9-242.6-1131.8-475.2-1609.7-832.1-870.4-650.01-2351.2-2594.49-3341.7-4461.57-655.4-1235.26-1099.1-2435.28-995.8-3200.78 71.3-528.58 313-999.22 567.8-1466.431 262.2-480.879 538.1-958.117 670.4-1485.989" clip-path="url(#q)" style="fill:#eeeadd;fill-opacity:1;fill-rule:evenodd;stroke:none" transform="matrix(.13333 0 0 -.13333 -2821.36 1861.128)"/><path d="M45586.6 13058.6c41.3-3.5 71.8-39.9 68.3-81.2-3.6-41.2-40-71.8-81.2-68.2-1381.6 119.6-2781.2-407.3-4132.3-900.8-1375.5-502.5-2702.1-969.4-3909.3-722.7-477.5 97.6-743.1 398.7-958.9 751.8-202.4 331.2-358.8 709.4-627.9 986.2-156 160.5-354 238.4-557.9 306-220.7 73.2-448.4 134.3-646.9 255.9-338.1 207.3-571.4 546-839.1 805-246.5 238.4-525.2 404.3-968 297.1-840.4-203.3-1394.3-874.1-1877.8-1627-497.3-774.4-920-1636.5-1481.2-2199.7-392.9-394.3-946.7-670.5-1522.2-920.91-562.9-244.92-1146.6-465.4-1612.8-755.17-1268-788.03-2483.9-2290.67-3138-3916.8-434.3-1079.69-621.2-2214.13-406.4-3229.69 181-856.13 673.4-1406.102 1105.8-2129.828 21.3-35.532 9.6-81.622-25.9-102.852-35.5-21.23-81.6-9.609-102.8 25.922-441.3 738.508-939.2 1302.108-1123.9 2175.728-220.5 1042.79-31.9 2208.06 414 3316.69 666.3 1656.35 1906.4 3185.56 3198 3988.23 471.9 293.32 1062.3 517.4 1632.2 765.28 557.3 242.5 1095.2 507.4 1475.7 889.3 554.5 556.4 969.9 1409.7 1461.3 2174.8 505.2 786.6 1090.7 1479.4 1968.7 1691.8 506.1 122.5 825.9-62.7 1107.5-335.1 260.3-251.7 484.6-583.4 813.3-784.9 188.7-115.6 405.9-171.8 615.7-241.4 226.7-75.2 444.8-165.4 618.3-343.9 276.7-284.6 440.2-671.9 648.3-1012.4 194.7-318.6 430.2-595.2 860.9-683.2 1182.6-241.6 2480.4 224.4 3827.8 716.7 1371.9 501.1 2793.9 1030.7 4196.7 909.3" clip-path="url(#r)" style="fill:#eeeadd;fill-opacity:1;fill-rule:evenodd;stroke:none" transform="matrix(.13333 0 0 -.13333 -2821.36 1861.128)"/><path d="M25048.2-366.941c24.1-33.637 16.4-80.528-17.3-104.649-33.6-24.121-80.5-16.379-104.6 17.262-856 1194.078-1246.2 2874.718-1088.7 4470.438 157.9 1600.43 866.3 3114 2199.9 3969.75 531.2 340.89 1133.1 510.1 1733.2 674.16 585.7 160.12 1169.4 315.18 1678.8 631.74 690.1 428.91 1017.9 1184.24 1350.1 1932.24 344.9 776.4 694.4 1544.9 1413.7 1970.3 334.3 197.7 582.1 267.3 791.5 263.8 212.1-3.5 386.7-81.7 572.9-187.8 228.4-130.3 476.4-303.9 854.4-408.9 164.3-45.6 354.3-53.6 536.3-83.8 200.2-33.1 390.7-92.6 537-238 445.5-442.8 725.5-1077 1101-1586.3 358.8-486.6 809.1-854.9 1604.1-797.5 706.1 50.9 1379.9 389.7 2054 580 1808 510.5 3711.2 1071.6 5593.8 635.1 40.3-9.3 65.5-49.6 56.1-90-9.3-40.3-49.6-65.4-90-56.1-1857.7 430.7-3735-129.6-5519.1-633.4-683.7-193-1367.9-533.6-2084-585.2-859.2-62.08-1347.8 332.2-1735.6 858.1-371.1 503.2-645.8 1131.4-1086 1568.9-123.6 122.8-286.6 168.4-455.8 196.4-187.4 31.1-382.8 40.3-551.9 87.3-392.8 109-651.2 287.7-888.6 423.1-163.2 93-315.1 165.1-501.1 168.1-188.9 3.2-410.9-64.5-712.6-242.9-692.4-409.4-1021.1-1154.8-1353-1902.1-344.6-775.8-692.2-1553.87-1408-1998.74-521.6-324.18-1118.7-485.05-1718.5-649.03-585.4-160.06-1173.5-323.13-1691.7-655.71-1295.2-831.13-1978.3-2303.88-2131.6-3858.24-153.9-1559.06 224.9-3201.661 1061.3-4368.321" clip-path="url(#s)" style="fill:#eeeadd;fill-opacity:1;fill-rule:evenodd;stroke:none" transform="matrix(.13333 0 0 -.13333 -2821.36 1861.128)"/><path d="M45460.3 10266.7c40.7-7.8 67.4-47.1 59.6-87.7-7.8-40.7-47.1-67.4-87.8-59.6-1218.2 233.3-2348.6-112.5-3475.3-508-1147.6-402.86-2291.5-857.2-3515.4-833.26-692.2 13.55-1132.1 134.44-1444.4 323.26-315.1 190.56-502.1 450.93-683.1 748.47-229.4 377.03-449.8 815.53-944.3 1235.43-109.8 93.3-281.5 138.9-456.8 177-192.7 41.8-390.5 73-532.3 130.2-214.1 86.3-389.9 193.3-574.3 280.7-174.4 82.7-357 147.2-592.6 154.1-215.9 6.3-406.2-85.8-580-238.7-184-161.9-349.1-390.8-504.5-650.7-287.3-480.2-540.3-1065.07-807-1543.36-183.5-329.16-374.7-608.41-585.2-775.33-348.7-276.35-762.8-394.84-1190.4-479.8-411.9-81.84-836.3-132.37-1221.2-275.88-1588.7-592.36-2598-1432.49-3151.5-2464.6-832.4-1552.27-634.3-3532.48 152-5737.11 13.9-38.992-6.4-81.929-45.4-95.84-39-13.91-82 6.461-95.9 45.442-802.9 2251.118-992.8 4273.388-142.9 5858.388 568.1 1059.4 1600.6 1926.25 3231.3 2534.26 392.3 146.27 824.5 199.05 1244.3 282.47 404.2 80.3 797 189.02 1126.5 450.22 197.9 156.9 374.9 421.43 547.4 730.83 267.4 479.54 521.3 1065.81 809.3 1547.31 164.2 274.5 339.8 515.4 534.1 686.3 204.3 179.8 429.8 283.4 683.5 276 505.1-14.8 784.6-270.7 1218.5-445.6 163.7-66 405.4-94.2 622.6-149.5 159.1-40.5 305.5-95.7 407.6-182.4 509.6-432.8 738.9-883.3 975.3-1271.86 168.3-276.62 339.7-520.92 632.7-698.09 295.8-178.91 713.7-288.8 1369.6-301.64 1206-23.59 2332.1 427.89 3462.8 824.82 1151.7 404.27 2308 752.27 3553.2 513.77" clip-path="url(#t)" style="fill:#eeeadd;fill-opacity:1;fill-rule:evenodd;stroke:none" transform="matrix(.13333 0 0 -.13333 -2821.36 1861.128)"/><path d="M26286.2-513.23c6.7-40.829-20.9-79.489-61.7-86.258-40.9-6.774-79.5 20.879-86.3 61.718-162 976.239-411.8 2024.86-475.5 3062.31-64.5 1050.37 61.5 2089.11 652.5 3032.46 480.5 766.95 1112.3 1097.02 1808.8 1297.68 678.6 195.49 1419.5 265.68 2136.9 512.69 402.8 138.67 728.9 414.58 1021.9 741.36 300.5 335.13 565.9 723.8 839.3 1079.74 568.2 739.75 1173.9 1334.03 2162.6 1087.13 186.4-46.5 359.6-159.4 528.1-319.7 239.9-228.18 472.1-553.99 729-907.87 623.5-859.08 1395.4-1891.53 2826.6-2020.85 1045.1-94.43 1994 386.27 2948 730.61 1580.8 570.57 3256.1 958.92 4943 735.97 41.1-5.42 70-43.14 64.5-84.18-5.4-41.03-43.1-69.95-84.1-64.52-1663 219.78-3314.1-165.89-4872.5-728.36-974.3-351.66-1945.1-835.35-3012.4-738.91-1482.1 133.92-2288.9 1192.53-2934.5 2082.13-250.8 345.58-476.7 664.46-711 887.29-147.6 140.41-297.7 242.09-461.1 282.89-922.1 230.2-1477.3-343.06-2007.2-1033-558-726.38-1088.4-1581.33-1931.3-1871.56-719.9-247.87-1463.3-318.82-2144.3-515-663-191-1265.8-503.14-1723.2-1233.18-573.6-915.49-692.5-1924.27-629.9-2943.63 63.4-1032.28 312.6-2075.57 473.8-3046.96" clip-path="url(#u)" style="fill:#eeeadd;fill-opacity:1;fill-rule:evenodd;stroke:none" transform="matrix(.13333 0 0 -.13333 -2821.36 1861.128)"/><path d="M45645.4 6993.7c41.3-3.41 72-39.67 68.6-80.92-3.4-41.25-39.7-71.98-80.9-68.57-1259.5 104.06-2395.7-234.77-3524-600.96-1144.8-371.54-2281.7-771.15-3526.7-782.89-1248.8-11.78-1877.4 457.41-2407.8 959.51-507.8 480.63-918.8 997.06-1739.1 1110.78-592.9 82.2-935.6-149.91-1249.4-447.87-335.7-318.69-641.4-707.63-1148.6-909.75-865.6-344.9-1830.2-366.84-2695.8-710.89-1854.1-737.02-2298.1-2184.4-2082-3736.86 146-1048.971 590.7-2145.409 1108.3-3108.53 19.6-36.46 5.9-81.97-30.6-101.57-36.4-19.6-82-5.9-101.5 30.56-1324.8 2465.01-2156 5781.24 1050.4 7055.79 865.5 344.04 1830.1 365.96 2695.6 710.85 487.8 194.34 778.2 572.75 1100.9 879.18 344.5 327.15 722.3 577.93 1373.3 487.67 689.1-95.54 1106.5-456.19 1518.3-856.03 589.6-572.39 1169-1226.41 2606.6-1212.85 1229.3 11.59 2351.3 408.7 3481.8 775.58 1147 372.23 2302.4 713.54 3582.6 607.77" clip-path="url(#v)" style="fill:#eeeadd;fill-opacity:1;fill-rule:evenodd;stroke:none" transform="matrix(.13333 0 0 -.13333 -2821.36 1861.128)"/><path d="M29478.6-266.109c16.3-38.063-1.4-82.172-39.5-98.43-38-16.262-82.1 1.449-98.4 39.508-330.8 774.41-693.7 1745.201-705.6 2617.541-12.1 893.87 337.3 1687.21 1443.8 2078.92 294.5 104.23 605.7 138.42 918.6 170.41 301.6 30.84 604.8 59.61 894.5 154.21 491 160.31 854.6 456.59 1236.4 679.71 401.6 234.63 821.9 391.91 1412.2 257.36 608.3-138.64 1024-456.13 1441.7-787.18 602.5-477.49 1210.2-983.04 2462.2-965.91 558.8 7.64 1106.8 229.46 1644.2 360.5 2319.4 565.53 4264.6 1181.87 6641.4 535.58 39.9-10.86 63.6-52.11 52.7-92.05-10.9-39.95-52.1-63.56-92.1-52.7-2350.2 639.06-4273 22.64-6566.5-536.56-548.1-133.66-1107.7-356.96-1677.6-364.76-1085.5-14.84-1706.2 346.09-2245.7 754.41-520 393.64-960.2 835.28-1693.6 1002.43-545 124.21-932.5-24.02-1303.2-240.63-390.4-228.15-763.5-528.87-1265.5-692.8-300-97.92-613.6-128.91-925.8-160.83-301-30.77-600.6-62.33-883.9-162.59-1030.1-364.66-1355.1-1103.35-1343.8-1935.49 11.6-853.65 369.9-1802.829 693.5-2560.649" clip-path="url(#w)" style="fill:#eeeadd;fill-opacity:1;fill-rule:evenodd;stroke:none" transform="matrix(.13333 0 0 -.13333 -2821.36 1861.128)"/><path d="M45550.6 3273.88c41.1-5.55 69.9-43.35 64.3-84.37-5.5-41.02-43.3-69.83-84.3-64.28-1237.6 167.21-2369.5-128.61-3495.3-475.79-1142.3-352.27-2278.4-757.25-3508.1-802.81-767.2-28.43-1390.6 234.39-1999.8 545.15-592.6 302.26-1171.5 650.48-1864.7 802.29-258.3 56.59-443.2-3.9-623.7-80.64-200.9-85.42-397.2-188.88-664.2-204.89-681.8-40.89-1228.3-146.63-1643-323.22-401.7-171.07-677.4-408.16-827.9-718.82-151.4-312.65-175.7-697.76-81.8-1159.051 96.7-474.551 318.2-1027.418 659.5-1663.289 19.6-36.469 5.9-81.98-30.6-101.55-36.5-19.58-82-5.86-101.6 30.61-349.6 651.358-575.2 1218.178-674.2 1704.292-101.8 499.378-70.2 915.898 93.7 1254.368 323.8 668.73 1175 1041.11 2596.9 1126.39 247.4 14.84 428.3 114.04 614.5 193.2 206.6 87.86 418.7 153.91 714.5 89.13 706.3-154.67 1297-507.24 1900.7-815.2 587.1-299.45 1186.8-556.27 1926.1-528.87 1216.4 45.07 2339.6 447.81 3469.5 796.25 1146.3 353.52 2299.4 651.36 3559.5 481.1" clip-path="url(#x)" style="fill:#eeeadd;fill-opacity:1;fill-rule:evenodd;stroke:none" transform="matrix(.13333 0 0 -.13333 -2821.36 1861.128)"/><path d="M32233-475.121c3.7-41.231-26.8-77.688-68-81.367-41.3-3.684-77.7 26.797-81.4 68.027-67 750.09 101.5 1260.43 419.9 1596.521 318.2 335.88 789.8 499.54 1341.5 547.56 1600.6 139.32 3887.7-697.671 4880-872.561 523.2-92.231 1089.6-98.989 1619.6-95.188 1156.6 8.289 2273 296.598 3394.5 492.909 1137 199.02 2279 303.91 3472-58.03 39.6-12.02 62-53.94 50-93.55s-53.9-62.009-93.5-49.989c-1169.1 354.699-2288.4 248.849-3402.6 53.819-1129.6-197.741-2254.3-486.8-3419.3-495.151-538.9-3.867-1114.7 3.68-1646.8 97.449-984.5 173.531-3252.8 1009.092-4840.9 870.862-511.3-44.5-950.8-190.04-1245.6-501.29-294.7-311.06-441.4-785.798-379.4-1480.021" clip-path="url(#y)" style="fill:#eeeadd;fill-opacity:1;fill-rule:evenodd;stroke:none" transform="matrix(.13333 0 0 -.13333 -2821.36 1861.128)"/><path d="M8611.08 13013.5c263.08 44.9 895.83 154.6 997.33 178.2 1241.99 288.5 2024.39 334 3003.69-543.5 440.9-395.1 1036.6-1421.9 1441.9-2062.2 164.1-259.3 292.1-453.9 365.3-502.7 217-144.84 455-175.19 707.3-154.52 265.9 21.79 547.3 99.62 838.3 169.42 609.5 146 1258.2 254.7 1896.5-192.61 175.5-122.96 378.6-397.53 592.7-725.15 309.5-473.61 646.4-1059.22 969.8-1425.47 109.6-124.04 216.7-222.38 321-279.15 88.6-48.2 173.8-65.39 254.9-32.23 126.4 51.71 236.6 157.06 338 298.43 162.7 226.92 300.1 544.68 430.1 900.23 335 915.77 621.7 2075.65 1120.4 2640.05 736.4 833.2 1710.3 1240.6 2662.1 1584 930.6 335.6 1839.6 608.1 2468.8 1179.6 512.6 465.6 749.2 1187.7 1077.6 1782.3 808.6 1463.8 1896.2 3133.8 3442.8 3902.3 1030.5 512.1 1832.6 308.2 2576.1-107.1 720.8-402.6 1384.4-1009.8 2156.6-1328.3 313.9-129.5 621.8-140.7 928.2-145.2 322.7-4.7 643.8-2.1 968.6-104.7 260.4-82.3 482.4-242.4 706.5-398.6 210.1-146.4 422.2-289.5 677-347.7 373.3-85.2 751.9 28.2 1127.9 171.6 395.8 150.9 788.7 335.8 1168.3 386.5 1154.2 154.2 2570-314.5 3675.7-640.8 39.7-11.7 62.4-53.4 50.7-93.1-11.7-39.7-53.4-62.4-93.1-50.7-1087.3 320.8-2478.5 787.6-3613.4 635.9-369-49.3-750-231.3-1134.8-378-404.5-154.2-813-269.3-1214.7-177.6-274 62.6-503.5 213.4-729.3 370.8-211.7 147.6-420.1 301-666 378.7-310.3 98-617.3 93.2-925.6 97.7-324.7 4.8-650.6 19.4-983.2 156.5-777.6 320.8-1446.7 930.6-2172.6 1336-703.1 392.8-1461.5 588.1-2436.2 103.8-1520.1-755.3-2583.5-2401.8-3378.2-3840.6-336.1-608.5-583.4-1344.2-1108-1820.7-642.5-583.7-1568.5-866.9-2518.8-1209.7-929-335.1-1881.8-729-2600.6-1542.3-489.1-553.5-763.4-1694.01-1091.9-2592.17-135.3-370.01-279.7-699.98-449.1-936.12-120-167.35-253.5-288.64-403.1-349.86-121.7-49.75-250.5-32.99-383.3 39.31-117.1 63.72-238.9 172.41-361.8 311.62-327.5 370.85-669.6 963.15-982.9 1442.71-201.2 307.83-388.4 568.83-553.2 684.36-597.3 418.55-1205.3 306.25-1775.5 169.53-298.8-71.63-588-150.63-861.1-173-286.7-23.48-556.2 14.69-802.8 179.21-80.4 53.71-228.3 262.21-408.8 547.31-398.7 629.8-981.4 1642.1-1415.2 2030.7-935 837.8-1683.8 784.6-2869.64 509.1-116.85-27.2-931.77-167.7-1093.44-194.8-18.07-3-28.85-4.7-30.8-5-81.59-9.8-83.71 84.9-82.84 89.3 72.25 359.5 347.38 682.2 657.1 986.3 294.38 289 619.13 561.8 806.11 841.5 180.41 269.9 306.21 593.8 452.61 901.1 152.9 321.2 328.4 624.2 600.7 837.9 389.1 305.4 853.7 496.9 1311.2 696.9 443.5 193.9 880.3 395.6 1228.1 727.5 781.1 745.7 1126.9 1722.5 1588.2 2664 18.2 37.2 63.2 52.6 100.4 34.3 37.1-18.2 52.5-63.1 34.3-100.3-469.1-957.4-825-1948.2-1619.3-2706.5-360.5-344.1-811.9-555.5-1271.6-756.5-445.8-194.8-899.5-379.8-1278.7-677.4-254.2-199.5-415.1-484.5-557.9-784.4-149.5-313.9-279-644.3-463.3-920-191.9-287.1-523.6-568.5-825.73-865.1-255.41-250.8-490.7-511.7-586.39-800.9" clip-path="url(#z)" style="fill:#eeeadd;fill-opacity:1;fill-rule:evenodd;stroke:none" transform="matrix(.13333 0 0 -.13333 -2821.36 1861.128)"/><path d="M16029.6 20595.2c10 40.1 50.8 64.5 91 54.4 40.1-10 64.5-50.8 54.4-91-218.3-869.4-390.1-1835.2-981.6-2545.8-203.3-244.1-566.1-489.1-1002.6-736.8-640.2-363.3-1440.3-735.7-2109.6-1132.7-438.3-259.9-820.2-529.6-1059.8-815.5-151-180.1-244.6-365.5-253-559.7-5.1-117.8 50.1-208.1 141.9-279.8 105.1-82 254.8-140.4 425.2-185.7 546.2-145.3 1296.7-153.9 1594.3-257.8 508.2-177.6 988.2-559.5 1345.2-956.2 181.3-201.4 303.6-442.3 425.1-681.8 115.3-227.4 229.7-453.6 401.3-638.1 307.5-330.8 812.7-333.9 1339.7-292.8 561.1 43.8 1147.7 141.5 1576.8 17.7 152.8-44.2 318-158.6 489.8-307.1 242.9-210 502.1-488.4 766.2-707.8 247.1-205.2 496-361.7 741.6-337.5 158.2 15.6 311.4 109.4 461.3 308.6 361 479.6 573.1 1006.3 841.7 1488.8 277 497.5 612.6 948.7 1215.1 1262 597.4 310.6 1298.3 400.7 1967.4 552 646.6 146.2 1263.6 350.1 1716.2 892.9 505.7 606.3 776.9 1389.4 1077.8 2107.7 756.4 1805.9 1875.8 3092.5 3544.5 4132.5 35.1 21.9 81.4 11.2 103.3-24 21.9-35.1 11.1-81.4-24-103.3-1640.7-1022.6-2741.7-2287.5-3485.5-4063.1-306.5-731.9-585.7-1528.1-1100.9-2145.9-475.1-569.7-1119.6-789.7-1798.4-943.2-656.4-148.4-1345-233.9-1931.2-538.7-572.9-297.9-889.9-728.8-1153.2-1201.9-271.8-488.2-487.7-1020.6-852.9-1506-182.5-242.4-374.1-348.8-566.5-367.69-190.5-18.75-385 49.79-578.1 170.19-323.4 201.6-645.7 550.3-946 824.8-187.9 172-365.3 315.1-529.8 362.6-500.3 144.4-1220.8-29-1854.7-40.2-450.7-8-858.6 65.2-1130.1 357.2-181.1 194.8-303.5 432.5-425.2 672.4-115.5 227.9-230.4 457.8-402.8 649.4-340.9 378.7-797.9 745.3-1283.2 914.8-295.5 103.3-1041 110.3-1583.4 254.6-192.4 51.2-360.2 119.8-478.9 212.4-132 103-206.8 235-199.5 404.5 9.7 224.6 113.3 441.3 287.9 649.6 248.7 296.6 643.5 578.4 1098.2 848.2 670.2 397.4 1471.2 770.3 2112.2 1134.1 417.6 237 766.8 468.7 961.3 702.3 577.1 693.3 738.4 1638 951.5 2486.4" clip-path="url(#A)" style="fill:#eeeadd;fill-opacity:1;fill-rule:evenodd;stroke:none" transform="matrix(.13333 0 0 -.13333 -2821.36 1861.128)"/><path d="M28618.2 20760.6c32.9 25.2 80 19 105.2-13.8 25.2-32.9 19-80-13.9-105.2-1332.6-1022.7-1646.3-1903.1-1953.8-2835.4-209.6-635.5-416.8-1294.4-926.8-2036.3-669.3-973.7-1417.7-1141.1-2152.7-1285.5-469-92.1-932.5-173.3-1362.1-470.9-366.6-254-616.8-658.7-873.8-1044.4-270.1-405.5-548.3-789.9-955.5-982.7-397.2-188.1-662.8-129.3-915.9-4.8-230.4 113.3-448.9 288.8-765.5 360.2-364.1 82-738.8 16.6-1110.5-27-393.9-46.3-784.5-68.6-1157.9 102.4-278.8 127.6-449.3 387.1-608.3 664.5-146 254.6-282.4 524.4-508.2 696.4-369 281.2-790.2 382.7-1211.1 470.7-439.6 92-879.1 169.6-1265.8 399.9-67.4 40.1-110.8 108-134.9 187.8-30.4 100.9-29.6 221.2-22.3 306.6 4.5 52.9 36.9 117.5 98.5 186.9 74.8 84.1 194.8 181.3 341.4 283.8 547.4 382.7 1476.4 849 1698.1 1009.6 1411.3 1022.5 1830.3 2391.7 2087.5 4055.6 6.4 41 44.7 69 85.6 62.7 40.9-6.3 69-44.7 62.7-85.6-263.7-1705.9-700.9-3105.8-2147.8-4154.2-222-160.8-1152-627.8-1700.2-1011-135-94.5-246.3-183.1-315.2-260.6-34.2-38.5-58.6-70.6-61.1-100-6-69.7-8.4-168.1 16.4-250.5 12.8-42.4 32.2-80.9 68-102.2 372.4-221.7 796.5-293.4 1219.8-381.9 442.3-92.5 883.5-202.8 1271.3-498.3 241.3-183.8 391.4-469 547.4-741.1 142.9-249.3 290.1-488 540.6-602.8 347.5-159.1 711.4-132.8 1078-89.8 388.6 45.7 780.3 110.1 1161 24.4 266.6-60.1 468.1-188.2 662-298.5 262.4-149.3 510.3-262.7 922.2-67.6 383.5 181.6 640.5 548.4 894.9 930.3 267.6 401.5 531.4 820.1 913.2 1084.5 447.8 310.2 929.6 398.8 1418.6 494.8 701.8 137.9 1418.9 293.6 2058 1223.2 500.3 727.9 702.3 1375 908 1998.4 315.4 956.2 638.1 1858.5 2004.9 2907.4" clip-path="url(#B)" style="fill:#eeeadd;fill-opacity:1;fill-rule:evenodd;stroke:none" transform="matrix(.13333 0 0 -.13333 -2821.36 1861.128)"/><path d="M18195.6 20640.3c-4.7 41.1 24.8 78.4 66 83.1 41.1 4.7 78.3-24.9 83-66 240.3-2094.9-1378.9-3461.2-2360.2-4296.3-244.8-208.3-448.5-382.4-568.9-526.5-65.3-78.1-107.5-141.8-102.9-198.7 11.3-140.9 137.4-236.3 291.1-316.7 270-141.2 631.6-226 798.1-322.2 246.3-142.2 435.8-351.8 626.4-558.4 179.3-194.4 359.5-386.3 598.8-505.6 279.9-139.4 554.3-123.6 829.6-72.7 294.6 54.5 590.5 148.3 894.8 159.1 177.5 6.3 345.6-50.6 511.9-104.6 146.8-47.6 291.9-93.5 443.4-71.5 227 33.1 440.6 160.9 620.1 298 274 209.1 497.9 486 731.3 749.9 242.9 274.7 496.1 535.3 818.6 700.7 464.7 238.4 932.2 342.7 1368.8 502.1 420.8 153.6 812.2 359.7 1139.9 803.5 391.4 530.1 545.3 986.4 688.9 1439.6 221.6 699.6 418.6 1392.5 1375.2 2327.1 29.6 28.9 77.1 28.4 106-1.3 29-29.6 28.4-77.1-1.2-106-930.8-909.4-1121.4-1584.3-1337-2265.1-148-467.2-307.8-936.9-711.2-1483.4-348-471.3-762.3-692.2-1209.2-855.3-431-157.3-893-259.3-1351.7-494.6-306-157-544.3-406.1-774.7-666.6-239.9-271.3-471-554.9-752.7-769.9-199.2-152-437.7-290.5-689.5-327.1-174.4-25.4-342.3 22.4-511.3 77.2-149.7 48.6-300.4 103.1-460.3 97.4-296.9-10.6-585.4-103.5-872.9-156.7-306.7-56.7-611.9-69.4-923.7 86-255.8 127.5-450.5 330.3-642.2 538.1-180.4 195.5-358 395.6-591.1 530.2-165.3 95.5-524.6 179-792.6 319.2-205 107.3-356.1 249.7-371.1 437.6-6.9 85.6 39.2 189.6 137.3 306.9 124.4 148.8 334 329.4 586.7 544.5 953.4 811.3 2542 2129.9 2308.5 4165" clip-path="url(#C)" style="fill:#eeeadd;fill-opacity:1;fill-rule:evenodd;stroke:none" transform="matrix(.13333 0 0 -.13333 -2821.36 1861.128)"/><path d="M25241.2 20541c21 35.6 67.1 47.4 102.7 26.4 35.6-21.1 47.4-67.1 26.4-102.8-247.1-417.7-298.3-893-359.2-1360-63.8-489.3-138.3-969.6-429.1-1374.6-289.1-402.6-694.7-630.1-1125.9-820.6-414.9-183.3-853.5-332-1225.4-583.6-315.8-213.8-548.8-485.8-793.9-742.1-255.6-267.2-524.1-517.8-901.9-677.9-529.5-224.4-2123-223.8-3071.9 121.3-209 75.9-387.1 168.7-518 278-141.2 117.8-228.7 255.7-248.4 412-18.7 148.1 3.1 324.1 92.9 449 147.5 205.2 376.2 371.8 616.1 528.9 228.3 149.5 466.6 290.7 645.7 454.4 527.4 482.1 1002.3 1333.5 1234.3 2191.6 153.6 568.2 201 1139.7 82.3 1608.2-10.2 40.1 14.1 80.9 54.3 91.1 40.1 10.2 80.9-14.1 91.1-54.3 124.3-490.6 77.9-1089.1-82.9-1684.1-239.7-886.8-732.9-1765.1-1278-2263.2-184.5-168.7-429.4-315.1-664.7-469.2-223.6-146.5-438.8-299.6-576.4-491-68.3-95-80.2-229.9-65.9-342.6 15.2-120.7 86.7-224.7 195.7-315.7 119.4-99.7 282.6-182.9 473.1-252.2 915.2-332.8 2451.5-340.5 2962.2-124.1 357.5 151.5 610.1 390.6 852 643.5 252.3 263.8 493.1 542.5 818.3 762.6 379.1 256.6 825.7 409.6 1248.8 596.6 406.8 179.7 791.9 391 1064.7 770.9 276 384.4 341.5 842 402.2 1306.5 63.5 486.9 121.2 981.4 378.8 1417" clip-path="url(#D)" style="fill:#eeeadd;fill-opacity:1;fill-rule:evenodd;stroke:none" transform="matrix(.13333 0 0 -.13333 -2821.36 1861.128)"/><path d="M20282 20648.3c-7.4 40.7 19.6 79.8 60.3 87.3 40.7 7.4 79.8-19.6 87.3-60.3 113.6-619.4 255.8-1328.4 38.8-1939.9-118.7-334.6-671.6-922-1043.8-1442.8-141.6-198.2-256.5-385.9-304.6-545.2-26.8-88.9-33.6-167-2.2-229.5 28.6-57.2 101-89 180.9-114.1 147.2-46.1 325.5-57.6 415.1-66.6 459-46.3 764.6 2.7 992.3 114.4 225.9 110.9 373.6 282.8 520.7 475.7 210.1 275.5 418 592.4 813.3 857.9 230.1 154.5 481.4 216.4 716.5 306.3 215.3 82.4 416.4 190.2 566 439.1 370.9 616.9 491.6 1420.5 427.9 2130.2-3.7 41.3 26.7 77.7 67.9 81.4 41.3 3.7 77.8-26.7 81.5-67.9 66.4-740.2-61.9-1577.7-448.7-2221-170-282.8-396.3-408.3-641-501.9-224.9-86-466.4-142.9-686.5-290.8-378.9-254.4-576.2-560.2-777.6-824.3-161.5-211.7-326-397.7-574-519.4-246.3-120.9-576.5-179.1-1073.4-129-96 9.7-286.9 23.3-444.8 72.8-123.5 38.6-225.9 101.7-270.2 189.9-35.8 71.4-44.6 155.9-28.6 250.8 20.9 123.7 85.3 267.9 178.1 422.7 204.8 341.7 548.9 740.9 821.5 1089.3 174.3 222.8 319.4 423.1 372.3 572.1 208.4 587.3 64.2 1267.9-45 1862.8" clip-path="url(#E)" style="fill:#eeeadd;fill-opacity:1;fill-rule:evenodd;stroke:none" transform="matrix(.13333 0 0 -.13333 -2821.36 1861.128)"/><path d="M20792.2 17752c14.2 8.2 30.6 18.2 44.7 28.4 165.3 119.4 433 387.5 543.5 507.4 260.9 283.1 504.6 460 700.5 641.5 277.9 257.4 451.3 525.8 425.5 1158.1-1.7 41.3 30.5 76.3 71.9 78 41.4 1.7 76.3-30.5 78-71.9 28.4-696.7-167.3-990.6-473.5-1274.2-193.4-179.2-434.5-353.6-692.1-633.1-132.6-143.9-482.4-489.4-639.1-574.6-38.7-21-71.4-28.5-93.6-27.6-40.1 1.7-67.4 20.8-83.1 54.1-85 179.7-31.7 379 85.3 574.9 154 257.8 418.4 511.4 525.2 700.7 336.1 595.4 301 1071.8 233.4 1725.8-4.3 41.2 25.7 78.1 66.9 82.3 41.2 4.3 78.1-25.7 82.3-66.8 71.1-688.2 101.7-1188.5-251.9-1815-107.3-190.1-372.4-445-527.1-703.9-78.1-130.8-129.4-261.7-96.8-384.1" clip-path="url(#F)" style="fill:#eeeadd;fill-opacity:1;fill-rule:evenodd;stroke:none" transform="matrix(.13333 0 0 -.13333 -2821.36 1861.128)"/><path d="M45396.4 18275.2c38.4-15.3 57.3-59 42-97.4-15.3-38.5-59-57.3-97.4-42-515.4 205-1069.2 470.1-1635.5 626.9-553 153.2-1118 203-1669.3-18.5-447.2-179.8-1021.6-469.8-1510-504-280.9-19.6-546.9 86.1-808.3 216.1-244.2 121.5-484.2 264.2-731.7 326.8-239.9 60.8-469.6 37.8-698.7 5.1-243.9-34.8-487.3-80.6-740.3-63-1159.8 80.4-2534.6 1132.3-3181.2 2046.1-23.9 33.8-15.9 80.6 17.9 104.5 33.7 24 80.6 15.9 104.5-17.9 624.7-882.7 1948.7-1905.4 3069.2-1983.1 242.3-16.8 475.2 28.6 708.7 61.9 248.2 35.5 496.9 57.6 756.7-8.1 257.4-65.2 507.8-211.7 761.7-338 236.8-117.8 476.5-218.5 731-200.7 474.1 33.1 1030.4 319 1464.5 493.4 583.1 234.4 1180.6 186 1765.4 24 571.5-158.3 1130.7-425.2 1650.8-632.1" clip-path="url(#G)" style="fill:#eeeadd;fill-opacity:1;fill-rule:evenodd;stroke:none" transform="matrix(.13333 0 0 -.13333 -2821.36 1861.128)"/><path d="M36831.1 20440.3c-28.7 29.9-27.7 77.4 2.2 106.1 29.9 28.6 77.4 27.6 106.1-2.3 579-604.1 1044.3-628.7 1549.4-583.7 355.1 31.6 728.9 94.9 1169.2 32.3 243.6-34.7 461.7-120 683.9-192.5 209.1-68.3 422-124.8 667.1-106.7 381.2 28.2 748.1 148 1119.2 249.5 384.7 105.3 773.7 190.9 1185.3 146.9 928.7-99.3 1799.7-587.8 2560-1103.4 34.3-23.3 43.2-69.9 20-104.2-23.2-34.3-69.9-43.2-104.2-20-740.5 502.2-1587.3 981.8-2491.7 1078.5-392.5 41.9-763-42.1-1129.8-142.4-380.5-104.1-757-225.6-1147.7-254.5-266.2-19.7-497.7 39.6-724.7 113.7-214.1 69.8-423.9 153.2-658.5 186.6-427.4 60.8-790.1-2.5-1134.8-33.2-544.7-48.5-1046.6-22.2-1671 629.3" clip-path="url(#H)" style="fill:#eeeadd;fill-opacity:1;fill-rule:evenodd;stroke:none" transform="matrix(.13333 0 0 -.13333 -2821.36 1861.128)"/></svg>