<svg xmlns="http://www.w3.org/2000/svg" width="1526" height="238" fill="none"><path fill="#000" d="M101.29 17.77h-41v104.6H41.88V17.77H.12v-15h103.65l-2.47 15h-.01ZM121.41 72.63l.19-69.86h18.41l-.19 67.39c0 25.06 14.24 38.92 35.31 38.92s34.55-13.86 34.55-38.92l-.19-67.39h16.52l.19 68.91c0 33.41-22.02 52.58-52.01 52.58s-52.77-18.22-52.77-51.63h-.01ZM257.33 2.77h18.41v119.6h-18.41V2.77ZM414.7 2.77v119.98h-10.06l-80.87-86.38v86h-16.71V2.77h10.06l80.87 86.38V2.77h16.71ZM520.24 107.37l-2.47 15h-73.85V2.58h72.33l-2.47 15h-51.45v34.93h45.56l-2.28 14.05h-43.28v40.81h57.91ZM648.38 2.77v119.98h-10.06l-80.87-86.38v86h-16.71V2.77h10.06l80.87 86.38V2.77h16.71ZM785.62 107.37l-2.47 15h-70.24V2.77h18.41v104.6h54.3ZM879.59 107.37l-2.47 15h-73.85V2.58h72.33l-2.47 15h-51.45v34.93h45.56l-2.28 14.05h-43.28v40.81h57.91ZM1027.66 2.77v119.6h-18.41V41.5l-42.52 64.92H958l-42.71-64.54v80.49h-16.52V2.77h12.34l53.15 80.68 52.21-80.68h11.2-.01ZM1119.34 81.36h-40.62l-18.03 41h-17.84l53.34-119.6h12.34l48.03 119.6h-20.69l-16.52-41h-.01Zm-5.51-13.86-13.86-34.36-15.19 34.36h29.05ZM1175.91 2.77h18.41v119.6h-18.41V2.77ZM1315.25 17.77h-41v104.6h-18.41V17.77h-41.76v-15h103.65l-2.47 15h-.01ZM1434.08 122.37h-22.59l-26.96-33.98c-12.91-16.14-20.12-17.08-30.75-17.08v51.07h-18.41V3.73c9.68-1.52 24.11-2.85 33.41-2.85 32.08 0 45.94 15 45.94 32.46 0 15.76-10.44 27.34-29.61 32.65 5.32 2.85 10.25 7.4 15.95 14.62l33.03 41.76h-.01Zm-80.3-64.92c27.53 1.52 41-7.02 41-21.64 0-9.68-5.69-20.12-27.15-20.12-3.8 0-9.11.38-13.86.76v41h.01ZM1525.2 107.37l-2.47 15h-73.85V2.58h72.33l-2.47 15h-51.45v34.93h45.56l-2.28 14.05h-43.28v40.81h57.91ZM393.3 170.84h-26.08v65.91h-8.62v-65.91h-26.43v-7.45h62.41l-1.28 7.45ZM406.23 206.47l.12-43.08h8.62l-.12 41.69c0 16.54 9.32 25.5 23.05 25.5s22.47-8.97 22.47-25.5l-.12-41.69h8.03l.12 42.62c0 20.03-13.04 31.9-31.09 31.9s-31.09-11.41-31.09-31.44h.01ZM488.32 163.39h8.62v73.36h-8.62v-73.36ZM580.66 163.39v73.36h-4.89l-51-56.47v56.47h-8.03v-73.36h5.01l50.88 56.47v-56.47h8.03ZM637.37 208.34h-24.34l-12.69 28.41h-8.62l32.84-73.36h4.89l28.99 73.36h-9.78l-11.29-28.41Zm-2.79-6.87-8.73-22.01-9.78 22.01h18.51ZM727.96 236.75h-11.18l-17.35-21.31c-8.62-10.48-13.39-10.95-20.73-10.95v32.25h-8.62v-72.77c5.36-.93 13.62-1.75 19.21-1.75 19.1 0 26.43 9.55 26.43 19.68 0 10.13-6.29 17-18.86 20.03 3.26 1.75 6.52 4.77 10.13 9.2l20.96 25.62h.01Zm-49.25-39.47c18.4 1.16 27.6-4.54 27.6-14.21 0-6.17-3.73-13.39-18.28-13.39-2.56 0-6.17.23-9.32.58V197.28ZM731.57 201.12c0-21.66 15.84-38.89 40.52-38.89 7.92 0 15.6 1.75 20.73 4.42v9.08c-4.77-2.91-12.69-6.05-21.77-6.05-18.28 0-29.93 12.81-29.93 30.39 0 15.84 9.43 29.81 29.58 29.81 9.9 0 17.7-3.38 23.64-8.03l-1.51 9.2c-4.66 3.38-12.58 6.87-23.52 6.87-23.87 0-37.73-16.53-37.73-36.79l-.01-.01ZM871.65 163.39v73.36h-8.62v-35.28h-44.95v35.28h-8.62v-73.36h8.62v30.51h44.95v-30.51h8.62ZM891.57 163.39h8.62v73.36h-8.62v-73.36ZM974.13 170.84h-26.08v65.91h-8.62v-65.91H913v-7.45h62.41l-1.28 7.45ZM1032.46 229.3l-1.16 7.45h-44.25v-73.47h43.08l-1.28 7.45h-33.19v23.75h29.23l-1.16 6.99h-28.06v27.83h36.79ZM1039.34 201.12c0-21.66 15.84-38.89 40.52-38.89 7.92 0 15.6 1.75 20.73 4.42v9.08c-4.77-2.91-12.69-6.05-21.77-6.05-18.28 0-29.93 12.81-29.93 30.39 0 15.84 9.43 29.81 29.58 29.81 9.9 0 17.7-3.38 23.64-8.03l-1.51 9.2c-4.66 3.38-12.58 6.87-23.52 6.87-23.87 0-37.73-16.53-37.73-36.79l-.01-.01ZM1169.05 170.84h-26.08v65.91h-8.62v-65.91h-26.43v-7.45h62.41l-1.28 7.45Z"/></svg>